<svg width="80" height="80" viewBox="0 0 80 80" fill="none" xmlns="http://www.w3.org/2000/svg">
<circle opacity="0.4" cx="40" cy="40" r="40" fill="#D6EBE4"/>
<path d="M54.4898 37.6603L53.0198 43.9303C51.7598 49.3453 49.2698 51.5353 44.5898 51.0853C43.8398 51.0253 43.0298 50.8903 42.1598 50.6803L39.6398 50.0803C33.3848 48.5953 31.4498 45.5053 32.9198 39.2353L34.3898 32.9503C34.6898 31.6753 35.0498 30.5653 35.4998 29.6503C37.2548 26.0203 40.2398 25.0453 45.2498 26.2303L47.7548 26.8153C54.0398 28.2853 55.9598 31.3903 54.4898 37.6603Z" stroke="#2EDBA2" stroke-width="1.92857" stroke-linecap="round" stroke-linejoin="round"/>
<path d="M44.5898 51.0854C43.6598 51.7154 42.4898 52.2404 41.0648 52.7054L38.6948 53.4854C32.7398 55.4054 29.6048 53.8004 27.6698 47.8454L25.7498 41.9204C23.8298 35.9654 25.4198 32.8154 31.3748 30.8954L33.7448 30.1154C34.3598 29.9204 34.9448 29.7554 35.4998 29.6504C35.0498 30.5654 34.6898 31.6754 34.3898 32.9504L32.9198 39.2354C31.4498 45.5054 33.3848 48.5954 39.6398 50.0804L42.1598 50.6804C43.0298 50.8904 43.8398 51.0254 44.5898 51.0854Z" stroke="#2EDBA2" stroke-width="1.92857" stroke-linecap="round" stroke-linejoin="round"/>
<path d="M40.96 34.7949L48.235 36.6399" stroke="#2EDBA2" stroke-width="1.92857" stroke-linecap="round" stroke-linejoin="round"/>
<path d="M39.49 40.6001L43.84 41.7101" stroke="#2EDBA2" stroke-width="1.92857" stroke-linecap="round" stroke-linejoin="round"/>
</svg>
